<?xml version="1.0" standalone="no"?>
<!DOCTYPE svg PUBLIC "-//W3C//DTD SVG 20010904//EN"
 "http://www.w3.org/TR/2001/REC-SVG-20010904/DTD/svg10.dtd">
<svg version="1.0" xmlns="http://www.w3.org/2000/svg"
 width="382.000000pt" height="103.000000pt" viewBox="0 0 382.000000 103.000000"
 preserveAspectRatio="xMidYMid meet">

<g transform="translate(0.000000,103.000000) scale(0.100000,-0.100000)"
fill="#000000" stroke="none">
<path d="M3208 830 c-54 -29 -90 -81 -96 -140 -3 -32 -9 -50 -17 -50 -7 0 -25
-14 -40 -32 -30 -35 -28 -69 6 -103 16 -16 36 -21 109 -23 l90 -4 0 -63 c0
-77 -21 -112 -62 -102 -33 9 -45 37 -23 54 10 6 23 9 30 6 23 -8 38 6 24 23
-29 35 -99 2 -99 -47 0 -67 92 -95 141 -43 20 21 24 38 27 100 3 55 8 74 18
74 11 0 14 -18 14 -75 0 -68 3 -79 25 -101 53 -53 158 -8 141 60 -8 32 -45 51
-80 42 -36 -9 -35 -39 0 -34 17 2 31 -3 38 -14 16 -26 -14 -53 -48 -44 -30 7
-49 60 -44 121 l3 40 105 5 c115 6 139 15 166 66 42 77 -24 164 -118 156 -12
-1 -23 11 -33 35 -20 48 -41 71 -87 94 -50 25 -140 25 -190 -1z m162 -26 c45
-18 74 -53 87 -104 9 -34 10 -35 56 -32 39 3 50 -1 72 -22 31 -31 32 -72 3
-103 -21 -23 -24 -23 -258 -23 -244 0 -260 3 -260 42 0 20 41 50 61 46 10 -2
14 11 15 49 2 68 28 112 84 141 52 26 85 28 140 6z"/>
<path d="M2559 721 c-16 -16 -29 -34 -29 -41 0 -15 33 -26 38 -12 15 46 76 57
94 17 21 -47 2 -54 -155 -57 -126 -3 -142 -5 -145 -20 -3 -17 9 -18 146 -18
144 0 150 1 176 25 42 39 32 95 -21 123 -37 20 -73 14 -104 -17z"/>
<path d="M210 725 c-35 -8 -73 -23 -83 -34 -19 -19 -19 -20 2 -64 26 -54 64
-84 154 -125 138 -63 154 -91 88 -156 -48 -47 -56 -71 -30 -97 25 -25 30 -24
54 14 14 22 45 44 102 72 126 62 142 82 63 77 -39 -3 -50 -1 -50 11 0 15 29
27 68 27 25 0 29 12 9 29 -9 7 -37 8 -80 4 -56 -5 -67 -3 -67 9 0 19 21 28 65
28 22 0 41 8 55 22 11 12 18 23 17 24 -2 2 -56 -2 -120 -8 -86 -9 -120 -9
-128 -1 -22 22 1 30 98 36 169 10 250 38 241 85 -9 49 -310 80 -458 47z m298
-25 c147 -19 110 -42 -78 -48 -135 -4 -262 10 -244 28 24 24 208 35 322 20z"/>
<path d="M2825 704 c-43 -22 -65 -54 -65 -96 0 -31 4 -38 20 -38 16 0 20 7 20
30 0 40 39 80 78 80 70 0 109 -82 61 -126 -20 -18 -43 -19 -335 -22 -267 -2
-314 -5 -314 -17 0 -23 617 -22 660 0 33 17 60 61 60 98 0 49 -72 107 -132
107 -13 0 -36 -7 -53 -16z"/>
<path d="M810 490 c0 -91 3 -110 15 -110 12 0 15 17 15 93 l0 92 51 -93 c42
-77 55 -93 73 -90 20 3 21 9 24 111 3 104 2 107 -19 107 -20 0 -21 -4 -17 -80
2 -44 2 -80 1 -80 -1 0 -21 36 -44 80 -38 71 -46 80 -71 80 l-28 0 0 -110z"/>
<path d="M1050 490 l0 -111 62 3 c75 4 96 28 24 28 -46 0 -46 0 -46 35 0 33 2
35 35 35 24 0 35 5 35 15 0 10 -11 15 -35 15 -32 0 -35 2 -35 30 0 28 2 30 40
30 29 0 40 4 40 15 0 12 -13 15 -60 15 l-60 0 0 -110z"/>
<path d="M1206 578 c4 -13 17 -61 29 -108 19 -78 23 -85 48 -88 27 -3 31 5 52
103 13 61 18 58 39 -20 16 -60 26 -81 40 -83 27 -6 34 6 61 104 29 106 30 116
9 112 -12 -2 -23 -29 -39 -93 l-22 -90 -11 39 c-6 22 -17 63 -23 93 -10 45
-16 53 -34 53 -20 0 -25 -10 -46 -92 l-23 -93 -21 90 c-19 78 -25 90 -44 93
-20 3 -22 1 -15 -20z"/>
<path d="M1550 490 c0 -103 1 -110 20 -110 17 0 20 7 20 51 0 43 3 50 18 47 9
-2 28 -24 41 -50 15 -32 29 -48 42 -48 24 0 24 5 -4 61 l-23 46 20 27 c19 25
19 29 5 54 -13 24 -21 27 -77 30 l-62 3 0 -111z m91 80 c10 -6 19 -17 19 -25
0 -20 -28 -45 -51 -45 -16 0 -19 7 -19 40 0 43 13 50 51 30z"/>
<path d="M1750 490 c0 -103 1 -110 20 -110 19 0 20 7 20 110 0 103 -1 110 -20
110 -19 0 -20 -7 -20 -110z"/>
<path d="M1830 585 c0 -10 10 -15 30 -15 l30 0 0 -95 c0 -88 1 -95 20 -95 19
0 20 7 20 95 l0 95 30 0 c20 0 30 5 30 15 0 12 -16 15 -80 15 -64 0 -80 -3
-80 -15z"/>
<path d="M2030 490 l0 -111 62 3 c75 4 96 28 24 28 -46 0 -46 0 -46 35 0 33 2
35 35 35 24 0 35 5 35 15 0 10 -11 15 -35 15 -32 0 -35 2 -35 30 0 28 2 30 40
30 29 0 40 4 40 15 0 12 -13 15 -60 15 l-60 0 0 -110z"/>
<path d="M2405 430 c-15 -25 13 -30 170 -30 165 0 180 -3 167 -37 -5 -16 -27
-16 -52 -1 -16 10 -22 10 -32 0 -11 -11 -9 -17 11 -33 27 -22 49 -24 85 -7 47
21 47 85 1 106 -33 15 -341 17 -350 2z"/>
</g>
</svg>
