<?xml version="1.0" standalone="no"?>
<!DOCTYPE svg PUBLIC "-//W3C//DTD SVG 20010904//EN"
 "http://www.w3.org/TR/2001/REC-SVG-20010904/DTD/svg10.dtd">
<svg version="1.0" xmlns="http://www.w3.org/2000/svg"
 width="317.000000pt" height="289.000000pt" viewBox="0 0 317.000000 289.000000"
 preserveAspectRatio="xMidYMid meet">

<g transform="translate(0.000000,289.000000) scale(0.100000,-0.100000)"
fill="#000000" stroke="none">
<path d="M1421 2530 c-198 -53 -347 -166 -444 -336 -41 -70 -43 -72 -100 -88
-194 -54 -345 -204 -403 -401 -37 -124 -13 -333 47 -409 77 -98 228 -62 254
60 4 21 -1 52 -14 90 -42 119 -20 226 64 311 56 55 122 83 197 83 84 0 139 42
163 125 18 65 84 165 133 203 156 123 350 131 517 20 57 -38 127 -129 150
-195 42 -120 66 -141 182 -154 91 -10 153 -40 204 -97 70 -80 87 -183 48 -299
-26 -76 -18 -121 31 -168 28 -27 38 -30 96 -30 63 0 67 2 99 37 72 78 101 285
61 423 -58 197 -209 347 -403 401 -58 16 -60 17 -99 88 -48 88 -165 207 -254
259 -106 62 -206 89 -340 93 -92 3 -130 0 -189 -16z"/>
<path d="M1525 1431 c-16 -10 -39 -28 -50 -41 -19 -21 -20 -38 -23 -476 -2
-396 -1 -459 13 -487 25 -51 61 -72 127 -72 53 0 61 3 95 38 l38 37 0 469 0
469 -25 27 c-53 57 -120 70 -175 36z"/>
<path d="M1015 1229 c-42 -12 -85 -59 -96 -105 -4 -22 -9 -114 -9 -205 0 -156
-1 -168 -23 -200 -31 -47 -80 -77 -135 -84 -97 -12 -155 -66 -155 -145 0 -80
66 -140 153 -140 203 0 396 162 439 368 6 29 11 133 11 230 0 207 -7 232 -80
270 -48 24 -59 25 -105 11z"/>
<path d="M2060 1218 c-73 -37 -80 -61 -80 -270 0 -97 5 -201 11 -230 26 -123
121 -253 228 -312 59 -31 150 -56 211 -56 87 0 153 60 153 140 0 79 -58 133
-155 145 -52 7 -100 35 -132 78 -19 26 -21 46 -26 227 -5 180 -7 201 -26 226
-51 69 -115 87 -184 52z"/>
</g>
</svg>
