<?xml version="1.0" standalone="no"?>
<!DOCTYPE svg PUBLIC "-//W3C//DTD SVG 20010904//EN"
 "http://www.w3.org/TR/2001/REC-SVG-20010904/DTD/svg10.dtd">
<svg version="1.0" xmlns="http://www.w3.org/2000/svg"
 width="100.000000pt" height="100.000000pt" viewBox="0 0 100.000000 100.000000"
 preserveAspectRatio="xMidYMid meet">

<g transform="translate(0.000000,100.000000) scale(0.100000,-0.100000)"
fill="#000000" stroke="none">
<path d="M477 990 c-195 -33 -358 -125 -411 -231 -14 -29 -26 -67 -26 -83 1
-71 62 -151 150 -196 22 -11 60 -40 86 -65 25 -25 49 -45 53 -45 4 0 8 -13 8
-29 0 -15 9 -42 21 -59 23 -32 28 -52 13 -52 -21 0 -22 -41 -2 -73 37 -61 141
-99 171 -62 20 25 7 49 -35 63 -22 7 -47 20 -55 29 -12 12 -8 11 20 -3 79 -41
260 -12 268 42 6 40 -21 49 -90 29 -80 -22 -138 -14 -181 26 l-32 30 40 -8
c77 -15 197 -7 250 16 82 36 114 78 83 109 -18 18 -36 15 -72 -13 -65 -49
-203 -57 -291 -15 l-40 18 86 1 c102 1 163 12 244 42 98 36 187 136 155 174
-21 25 -45 17 -79 -25 -59 -74 -171 -110 -331 -109 -137 2 -177 13 -75 22 270
22 515 167 515 305 0 36 -35 90 -78 119 -67 45 -235 64 -365 43z m246 -85
c105 -27 139 -70 100 -123 -82 -111 -310 -191 -514 -180 -97 5 -173 31 -186
64 -15 39 62 131 148 174 138 71 327 98 452 65z"/>
<path d="M465 866 c-89 -20 -187 -68 -239 -116 -47 -43 -56 -66 -34 -88 19
-19 35 -14 75 22 93 82 224 121 379 112 81 -4 104 -3 114 9 14 17 0 49 -27 60
-35 14 -207 15 -268 1z"/>
<path d="M336 95 c-11 -8 -27 -15 -37 -15 -44 0 -48 -65 -5 -76 31 -7 92 19
106 46 9 18 8 25 -6 41 -20 23 -32 23 -58 4z"/>
</g>
</svg>
